# xmcd
#
# Track frame offsets: 
#        182
#        10745
#        22715
#        36790
#        50332
#        70445
#        80797
#        92210
#        105522
#        115767
#
# Disc length: 1872 seconds
#
# Revision: 3
# Processed by: cddbd v1.5.2PL0 Copyright (c) Steve Scherf et al.
# Submitted via: ExactAudioCopyFreeDBPlugin 1.0
#
DISCID=74074e0a
DTITLE=The Mar-Keys - The Great Memphis Sound
DYEAR=1966
DGENRE=Soul
TTITLE0=Honey Pot
TTITLE1=Plantation Inn
TTITLE2=I've Been Loving You Too Long
TTITLE3=Cleo's Back
TTITLE4=Grab This Thing
TTITLE5=Philly Dog
TTITLE6=Walking with the Duke
TTITLE7=The Girl from Ipanema
TTITLE8=In the Mood
TTITLE9="Dear James" Medley:  I'll Go Crazy - Papa's Got a Brand New B
TTITLE9=ag - I Got You - Good Loving - Night Train
EXTD=
EXTT0=
EXTT1=
EXTT2=
EXTT3=
EXTT4=
EXTT5=
EXTT6=
EXTT7=
EXTT8=
EXTT9=
PLAYORDER=
